<?xml version="1.0" encoding="UTF-8" standalone="no"?>
<!-- Created with Inkscape (http://www.inkscape.org/) -->

<svg
   xmlns:dc="http://purl.org/dc/elements/1.1/"
   xmlns:cc="http://creativecommons.org/ns#"
   xmlns:rdf="http://www.w3.org/1999/02/22-rdf-syntax-ns#"
   xmlns:svg="http://www.w3.org/2000/svg"
   xmlns="http://www.w3.org/2000/svg"
   xmlns:sodipodi="http://sodipodi.sourceforge.net/DTD/sodipodi-0.dtd"
   xmlns:inkscape="http://www.inkscape.org/namespaces/inkscape"
   width="210mm"
   height="297mm"
   viewBox="0 0 210 297"
   version="1.1"
   id="svg3798"
   inkscape:version="0.92.4 (5da689c313, 2019-01-14)"
   sodipodi:docname="IngranaggioSVG.svg">
  <defs
     id="defs3792" />
  <sodipodi:namedview
     id="base"
     pagecolor="#ffffff"
     bordercolor="#666666"
     borderopacity="1.0"
     inkscape:pageopacity="0.0"
     inkscape:pageshadow="2"
     inkscape:zoom="0.35"
     inkscape:cx="-258.57143"
     inkscape:cy="560"
     inkscape:document-units="mm"
     inkscape:current-layer="layer1"
     showgrid="false"
     inkscape:window-width="1920"
     inkscape:window-height="1001"
     inkscape:window-x="-9"
     inkscape:window-y="-9"
     inkscape:window-maximized="1" />
  <metadata
     id="metadata3795">
    <rdf:RDF>
      <cc:Work
         rdf:about="">
        <dc:format>image/svg+xml</dc:format>
        <dc:type
           rdf:resource="http://purl.org/dc/dcmitype/StillImage" />
        <dc:title></dc:title>
      </cc:Work>
    </rdf:RDF>
  </metadata>
  <g
     inkscape:label="Livello 1"
     inkscape:groupmode="layer"
     id="layer1">
    <path
       style="fill:#000000;stroke-width:0.26458335"
       d="m 21.011577,39.577142 c -0.22653,-0.32342 -0.41188,-0.74014 -0.41188,-0.92604 0,-0.62612 -1.45605,-0.37943 -2.09451,0.35486 -0.50263,0.57808 -0.76259,0.67037 -1.56907,0.55708 -1.45605,-0.20455 -3.81827,-1.16905 -5.05199,-2.06276 -1.04722,-0.7586 -1.09467,-0.8529 -1.02002,-2.02728 l 0.0783,-1.23168 -1.5874999,-0.0854 c -1.40979,-0.0759 -1.6703,-0.18118 -2.32716,-0.94067 -1.010436,-1.16833 -2.567631,-4.33655 -2.567631,-5.22402 0,-0.39919 0.185095,-0.87942 0.411322,-1.06717 1.21154,-1.00549 1.017082,-1.8324 -0.588696,-2.50334 l -0.880959,-0.36809 0.02551,-2.06402 c 0.01402,-1.13521 0.162859,-2.71532 0.330729,-3.51136 0.252,-1.19499 0.443611,-1.51791 1.098966,-1.85208 0.436562,-0.22261 0.831207,-0.48735 0.87699,-0.58832 0.04578,-0.10097 0.235067,-0.12531 0.420629,-0.0541 0.185566,0.0712 0.483601,-0.0467 0.662298,-0.26202 0.262586,-0.3164 0.207336,-0.59577 -0.288097,-1.4566 -0.602944,-1.04764 -0.605161,-1.07967 -0.135171,-1.95239 0.528378,-0.98114 2.277274,-2.9195696 3.459974,-3.8349296 0.7885699,-0.61033 2.1244299,-0.791 2.4117099,-0.32618 0.0899,0.14552 0.50094,0.26459 0.91335,0.26459 0.81513,0 1.07102,-0.38301 1.07102,-1.60304 0,-1.34919 2.46062,-2.35794 5.76362,-2.36285 1.91352,-0.003 1.93091,0.004 2.45958,0.89955 0.74715,1.26631 1.12377,1.31235 2.22664,0.27221 0.53071,-0.50052 1.07504,-0.91004 1.20962,-0.91004 0.58543,0 3.67135,1.1883 4.94295,1.9034 1.3998,0.78719 1.68088,1.25048 1.5741,2.59452 -0.0418,0.52604 0.0666,0.65744 0.52961,0.64186 0.32019,-0.0108 0.52152,0.0785 0.44741,0.1984396 -0.21048,0.34056 0.28176,0.25571 0.65379,-0.1126996 0.2675,-0.2649 0.38598,-0.23856 0.59523,0.1322896 0.14369,0.25466 0.42392,0.46302 0.62274,0.46302 0.79573,0 3.20871,3.86368 3.48257,5.57631 0.13519,0.84546 0.0526,1.1081 -0.53225,1.69297 -0.69411,0.69411 -0.93919,1.72656 -0.40986,1.72656 0.16727,0 0.20989,-0.22852 0.10453,-0.56047 -0.12724,-0.40091 -0.0779,-0.52715 0.17331,-0.44341 0.19315,0.0644 0.41729,0.39707 0.49808,0.73929 0.15946,0.67547 0.79121,1.05958 0.7978,0.48507 0.003,-0.26452 0.0682,-0.25349 0.26053,0.0441 0.39134,0.60555 0.30298,4.1558 -0.15146,6.08542 -0.22276,0.94588 -0.42439,1.92815 -0.44806,2.18281 -0.0237,0.25466 -0.13658,0.46302 -0.25092,0.46302 -0.11434,0 -0.20789,0.23813 -0.20789,0.52917 0,0.38805 -0.17639,0.52916 -0.66146,0.52916 -0.67067,0 -0.88378,-0.36053 -0.39256,-0.66412 0.54433,-0.33641 -0.039,-0.63165 -0.67522,-0.34176 -0.7891,0.35954 -0.83778,1.02033 -0.12284,1.66734 0.53214,0.48158 0.74533,1.98438 0.28151,1.98438 -0.13621,0 -0.50494,0.44648 -0.81941,0.99219 -0.70303,1.22 -3.04875,3.22332 -4.00273,3.41846 -0.41388,0.0847 -0.77393,0.37774 -0.87341,0.71096 -0.16827,0.56371 -0.17067,0.5634 -0.42201,-0.056 -0.16875,-0.41589 -0.39132,-0.5698 -0.66959,-0.46302 -0.22924,0.088 -0.58566,0.15995 -0.79204,0.15995 -0.23981,0 -0.37523,0.284 -0.37523,0.78695 0,0.60386 -0.18163,0.88088 -0.78063,1.19064 -1.13553,0.5872 -3.90278,1.18898 -5.48822,1.1935 -1.12257,0.003 -1.44945,-0.10372 -1.78594,-0.58413 z m 4.01596,-0.627 c 0.26637,-0.26637 0.6775,-0.37004 1.11804,-0.28193 0.38321,0.0766 0.86974,0.0203 1.08117,-0.12522 0.28331,-0.19498 0.21045,-0.22065 -0.27705,-0.0976 -0.5092,0.12853 -0.5701,0.103 -0.26458,-0.11091 0.21828,-0.15282 0.6685,-0.27968 1.00049,-0.28191 0.73753,-0.005 0.99354,-0.56737 0.5962,-1.3098 -0.21738,-0.40618 -0.21796,-0.67556 -0.002,-1.01286 0.2556,-0.39953 0.27704,-0.37983 0.16429,0.15091 -0.10656,0.5016 -0.0632,0.55522 0.24347,0.30075 0.20523,-0.17032 0.31561,-0.40277 0.24528,-0.51656 -0.15153,-0.24519 0.4756,-0.51631 1.27981,-0.55328 0.53043,-0.0244 0.52382,-0.0433 -0.0878,-0.25034 -0.63439,-0.21479 -0.62897,-0.22183 0.13229,-0.17206 0.57958,0.0379 0.77401,0.17144 0.72059,0.49496 -0.0933,0.56507 0.36505,0.86196 0.65019,0.42115 0.1192,-0.18428 0.21672,-1.16675 0.21672,-2.18328 0,-1.64378 0.0585,-1.85755 0.52917,-1.93246 0.43818,-0.0697 0.46092,-0.0363 0.13229,0.19459 -0.33572,0.23585 -0.34007,0.31541 -0.0282,0.51631 0.21557,0.13887 0.30826,0.4685 0.22321,0.79375 -0.22439,0.85806 0.24699,0.65782 0.5591,-0.2375 0.168,-0.48193 0.17817,-0.79375 0.0259,-0.79375 -0.138,0 -0.25087,-0.12898 -0.25087,-0.28663 0,-0.15765 0.14883,-0.2365 0.33073,-0.17522 0.1819,0.0613 0.47985,-0.0776 0.66211,-0.30868 0.29127,-0.36925 0.3148,-0.35605 0.19444,0.10907 -0.0753,0.29104 0.0208,0.19893 0.21359,-0.20468 0.19279,-0.40362 0.439,-0.64538 0.54714,-0.53723 0.10815,0.10814 0.11587,-0.0138 0.0172,-0.27105 -0.11665,-0.30401 -0.006,-0.59917 0.31675,-0.84342 0.47378,-0.35877 0.47441,-0.37613 0.0138,-0.38416 -0.31493,-0.005 -0.45147,-0.16918 -0.39326,-0.47144 0.049,-0.25466 0.23042,-0.46302 0.40305,-0.46302 0.17263,0 0.46866,-0.17285 0.65784,-0.38411 0.29692,-0.3316 0.28064,-0.33621 -0.11907,-0.0337 -0.31064,0.23506 -0.46302,0.25263 -0.46302,0.0534 0,-0.16334 0.0498,-0.29698 0.11065,-0.29698 0.0609,0 0.29899,-0.0723 0.52917,-0.1606 0.28648,-0.10993 0.41852,-0.01 0.41852,0.3175 0,0.37185 0.0706,0.40754 0.3175,0.1606 0.17462,-0.17463 0.51723,-0.3175 0.76135,-0.3175 0.65141,0 1.03903,-0.59967 0.85139,-1.31718 l -0.16427,-0.62818 -0.26286,0.64195 c -0.14457,0.35307 -0.24852,0.71847 -0.23099,0.812 0.0175,0.0935 -0.202,0.23121 -0.48784,0.30596 -0.56645,0.14813 -0.72558,-0.21655 -0.18897,-0.43307 0.1819,-0.0734 0.0628,-0.14285 -0.26459,-0.15434 -0.61026,-0.0214 -0.86112,-0.5468 -0.26458,-0.55411 0.22049,-0.003 0.19844,-0.0896 -0.0661,-0.26053 -0.35703,-0.23073 -0.19195,-0.37845 0.33073,-0.29592 0.10914,0.0172 0.19844,-0.0877 0.19844,-0.23325 0,-0.14552 -0.10255,-0.26458 -0.2279,-0.26458 -0.12534,0 -0.17099,-0.29766 -0.10144,-0.66146 0.0738,-0.38612 0.004,-0.66146 -0.16898,-0.66146 -0.1625,0 -0.29544,-0.17859 -0.29544,-0.39687 0,-0.22735 0.2384,-0.39688 0.55812,-0.39688 0.47987,0 0.54326,-0.12722 0.45217,-0.90748 -0.0583,-0.49911 -0.0177,-0.85297 0.0901,-0.78634 0.1078,0.0666 0.32995,-0.12913 0.49366,-0.43503 0.25341,-0.4735 0.21605,-0.57751 -0.25131,-0.69973 -0.30193,-0.079 -0.54896,-0.26331 -0.54896,-0.40967 0,-0.16032 -0.14551,-0.14536 -0.36598,0.0376 -0.28326,0.2351 -0.40285,0.20763 -0.52916,-0.12153 -0.25669,-0.66891 -0.19456,-0.91115 0.23368,-0.91115 0.46996,0 0.53316,-0.43964 0.0847,-0.58914 -0.36144,-0.12048 -0.10153,-0.99836 0.29558,-0.99836 0.14552,0 0.19153,0.19038 0.10223,0.42307 -0.14177,0.36945 -0.0911,0.37855 0.40007,0.0718 0.30933,-0.19318 0.6256,-0.51587 0.70281,-0.71709 0.10782,-0.28096 -0.028,-0.32359 -0.58527,-0.18373 -1.18176,0.29661 -1.23829,0.29116 -1.27818,-0.12326 -0.0943,-0.97931 -0.13239,-1.08117 -0.35351,-0.9445 -0.1291,0.0798 -0.21839,-0.0492 -0.19844,-0.28664 0.0199,-0.23743 -0.14232,-0.48334 -0.3606,-0.54646 -0.35278,-0.10202 -0.35278,-0.0836 0,0.16591 0.33998,0.24044 0.32771,0.28125 -0.0855,0.28472 -0.32259,0.003 -0.44888,-0.14935 -0.38116,-0.45897 0.0557,-0.25466 0.24429,-0.43283 0.4191,-0.39593 0.24025,0.0507 0.23641,-0.0645 -0.0157,-0.47192 -0.26566,-0.42929 -0.35097,-0.45641 -0.4191,-0.13324 -0.11781,0.55877 -0.24272,0.52084 -1.2778,-0.38797 -0.49722,-0.43656 -1.03934,-0.79375 -1.20472,-0.79375 -0.16538,0 -0.53889,-0.20836 -0.83002,-0.46302 -0.29114,-0.25466 -0.44232,-0.31419 -0.33595,-0.13229 0.10879,0.18606 0.0584,0.33073 -0.11512,0.33073 -0.16968,0 -0.24044,-0.17738 -0.15725,-0.39418 0.10106,-0.26335 -0.0616,-0.4476 -0.49,-0.55512 -0.3527,-0.0885 -0.78525,-0.33444 -0.96123,-0.54648 -0.27739,-0.33424 -0.21723,-0.34181 0.45217,-0.0569 0.42467,0.18074 1.15114,0.60403 1.61437,0.94065 0.46323,0.33662 1.07662,0.61204 1.36308,0.61204 0.29407,0 0.74634,0.35616 1.03878,0.81803 0.48164,0.7607 0.52809,0.77922 0.66276,0.26422 0.0797,-0.3046 0.0382,-0.48793 -0.0921,-0.40741 -0.13028,0.0805 -0.16597,-0.0384 -0.0793,-0.26422 0.0867,-0.22584 0.29691,-0.41062 0.46722,-0.41062 0.34674,0 1.57387,1.35032 1.69904,1.86961 0.0445,0.18464 0.23101,0.62218 0.41446,0.97231 0.29956,0.57172 0.36927,0.59355 0.68411,0.2142 0.2977,-0.35871 0.28825,-0.39849 -0.0627,-0.26383 -0.31581,0.12119 -0.39618,0.003 -0.34094,-0.49987 0.0558,-0.50852 -0.0243,-0.62232 -0.35181,-0.49984 -0.36739,0.13738 -0.37554,0.0989 -0.061,-0.28783 0.31781,-0.39071 0.25611,-0.52518 -0.23083,-0.50308 -0.0728,0.003 -0.28582,-0.16119 -0.47346,-0.36554 -0.18763,-0.20435 -0.22113,-0.37155 -0.0745,-0.37155 0.14669,0 0.19701,-0.18163 0.11183,-0.40362 -0.10978,-0.28609 -0.24977,-0.32489 -0.4807,-0.13323 -0.23196,0.19251 -0.46352,0.11824 -0.80386,-0.25783 -0.50683,-0.56004 -0.19506,-0.75059 0.3448,-0.21073 0.2287,0.22869 0.3175,0.23306 0.3175,0.0156 0,-0.47584 -0.49824,-0.66283 -1.25801,-0.47214 -0.5369,0.13475 -0.61175,0.22916 -0.3231,0.40755 0.31463,0.19446 0.30416,0.25961 -0.0645,0.40107 -0.61413,0.23566 -1.41036,0.0236 -1.33096,-0.35458 0.0364,-0.17326 -0.1851,-0.56626 -0.49218,-0.87334 -0.45168,-0.45168 -0.52688,-0.7549 -0.39375,-1.5874996 0.13026,-0.81458 0.0812,-1.02917 -0.23542,-1.02917 -0.22001,0 -0.40001,-0.11031 -0.40001,-0.24513 0,-0.33659 -2.88413,-1.72155 -3.49003,-1.6759 -0.26958,0.0203 -0.42575,-0.0673 -0.34704,-0.19465 0.0814,-0.13167 -0.19523,-0.13453 -0.64123,-0.007 -0.43139,0.12372 -0.82064,0.12709 -0.865,0.008 -0.0444,-0.1196 -0.3106,0.0989 -0.59165,0.48565 l -0.511,0.70312 0.57714,-0.50403 c 0.31743,-0.27722 0.57715,-0.3811 0.57715,-0.23084 0,0.436 -0.75172,0.9399 -1.16536,0.78117 -0.20809,-0.0798 -0.444,0.0259 -0.52424,0.23498 -0.17655,0.46009 -0.70327,0.48408 -1.60525,0.0731 -0.59015,-0.26889 -1.00045,-0.86013 -0.47547,-0.68513 0.10915,0.0364 0.22821,-0.0529 0.26459,-0.19844 0.0364,-0.14552 -0.0317,-0.26458 -0.15119,-0.26458 -0.2618,0 -1.10558,-0.81491 -1.10558,-1.06774 0,-0.0987 0.18477,-0.1086 0.41061,-0.0219 0.25202,0.0967 0.34319,0.0485 0.23605,-0.12489 -0.19343,-0.31299 -2.7349,-0.0734 -3.1263,0.29478 -0.12687,0.11933 -0.365,0.18625 -0.52917,0.14871 -0.16416,-0.0375 -0.20845,-0.0181 -0.0984,0.0433 0.11005,0.0613 0.15095,0.19066 0.0909,0.28737 -0.0601,0.0967 0.38308,0.17584 0.98476,0.17584 0.88566,0 1.11217,0.10075 1.18965,0.52916 0.0889,0.49177 0.0707,0.49674 -0.25879,0.0703 -0.44057,-0.5703 -1.4605,-0.35684 -1.68574,0.3528 -0.31173,0.98218 0.6675,1.46201 1.16595,0.57132 0.30156,-0.53885 0.69964,-0.27908 0.47388,0.30923 -0.27387,0.71371 -1.38324,0.78234 -2.25291,0.13937 -0.44153,-0.32644 -0.98074,-0.51718 -1.21158,-0.4286 -0.29283,0.11237 -0.41598,0.003 -0.41598,-0.36976 0,-0.30171 0.25604,-0.6323 0.59531,-0.76868 0.33247,-0.13363 0.42008,-0.2449 0.19844,-0.252 -0.71739,-0.023 -1.01768,0.36783 -1.10477,1.43782 -0.0662,0.8134 -0.19185,1.04648 -0.54888,1.01815 -0.25466,-0.0202 -0.46302,0.0691 -0.46302,0.19844 0,0.12935 -0.17156,0.23519 -0.38126,0.23519 -0.20969,0 -0.45462,0.1187 -0.54428,0.26378 -0.10565,0.17093 0.089,0.16796 0.55294,-0.008 0.62864,-0.23901 0.67494,-0.22278 0.3796,0.13309 -0.43745,0.5270996 -1.81755,0.5174596 -2.89535,-0.0202 -0.82001,-0.40907 -0.87978,-0.4014 -1.54574,0.19844 -0.7726499,0.6959496 -1.8602599,1.9031896 -2.4094599,2.6744996 -0.27755,0.38979 -0.29255,0.64018 -0.0647,1.0805 0.28999,0.56053 0.29344,0.56086 0.15685,0.0152 -0.16059,-0.64158 0.22765,-1.04172 1.26283,-1.30154 0.56635,-0.14214 0.72612,-0.0886 0.72612,0.24331 0,0.23406 0.0498,0.42556 0.11066,0.42556 0.3379099,0 0.9476799,-0.35335 0.9476799,-0.54917 0,-0.12538 -0.18753,-0.15601 -0.41673,-0.0681 -0.26473,0.10159 -0.3980499,0.0262 -0.36552,-0.20674 0.0977,-0.69967 -0.0129,-1.05848 -0.2760899,-0.89582 -0.4736,0.29271 -0.27905,-0.0379 0.3261699,-0.5543 0.48092,-0.41032 0.52409,-0.41794 0.23219,-0.041 -0.5111399,0.66004 -0.20861,0.57407 0.39282,-0.11163 0.27722,-0.31605 0.3552,-0.4876196 0.1733,-0.38126 -0.1819,0.10636 -0.33073,0.0673 -0.33073,-0.0868 0,-0.3061096 0.8641,-0.3862296 1.14424,-0.1060996 0.0958,0.0958 0.0263,0.3567296 -0.15435,0.5799496 -0.27261,0.33689 -0.26098,0.36612 0.0684,0.172 0.32106,-0.1892 0.33783,-0.16078 0.0878,0.14871 -0.17001,0.21041 -0.3486,0.79882 -0.39687,1.30755 -0.0739,0.77903 -0.19939,0.93789 -0.79518,1.00676 -0.39101,0.0452 -0.8941799,0.36682 -1.1249999,0.7191 -0.22968,0.35053 -0.56889,0.57926 -0.75381,0.5083 -0.23842,-0.0915 -0.33621,0.18851 -0.33621,0.96263 0,0.85984 -0.15281,1.22309 -0.71962,1.71063 -0.39681,0.34132 -0.601811,0.69179 -0.457,0.78129 0.14443,0.0893 0.2626,0.28136 0.2626,0.42688 0,0.14552 -0.11084,0.19608 -0.2463,0.11236 -0.135468,-0.0837 -0.321089,-0.0312 -0.412492,0.11668 -0.0914,0.14789 -0.292804,0.2689 -0.447553,0.2689 -0.177427,0 -0.159692,-0.14661 0.04801,-0.39688 0.268893,-0.32399 0.253415,-0.39687 -0.08428,-0.39687 -0.61708,0 -0.709136,0.29687 -0.778436,2.51039 -0.0553,1.76612 0.0019,2.05928 0.451255,2.31166 0.283017,0.15897 0.775306,0.57036 1.093975,0.91421 0.49522,0.53435 0.60305,0.56354 0.74219,0.20094 0.24003,-0.62551 0.19935,-0.91012 -0.13009,-0.91012 -0.16109,0 -0.22199,0.18478 -0.13533,0.41062 0.0904,0.23546 0.046,0.34166 -0.10398,0.24897 -0.34123,-0.21088 -0.33889,-0.92416 0.003,-0.92416 0.14552,0 0.26458,-0.34396 0.26458,-0.76435 0,-0.55936 -0.12146,-0.7545 -0.45288,-0.72761 -0.637872,0.0518 -0.780456,-0.89307 -0.15929,-1.0555 0.27147,-0.071 0.61851,-0.53231 0.77388,-1.0287 0.15493,-0.49498 0.18192,-0.83832 0.06,-0.76296 -0.12193,0.0754 -0.2217,0.006 -0.2217,-0.15372 0,-0.44275 1.07631,-2.45655 1.23052,-2.30233 0.0744,0.0744 0.007,0.37576 -0.15075,0.6697 -0.45301,0.84645 -0.32975,1.03582 0.1784,0.27407 0.25389,-0.38061 0.78422,-1.17427 1.1785099,-1.7637 0.39428,-0.58942 0.84271,-1.14944 0.9965,-1.24448 0.15379,-0.0951 0.24098,-0.25389 0.19375,-0.35297 -0.0472,-0.0991 0.32731,-0.59688 0.83231,-1.1062 0.505,-0.50932 0.81889,-0.74745 0.69753,-0.52917 -0.15901,0.28602 -0.0728,0.26754 0.30869,-0.0662 0.61759,-0.54022 0.98806,-0.60572 0.74825,-0.13229 -0.0921,0.1819 0.003,0.12237 0.21199,-0.13229 0.20873,-0.25466 0.49294,-0.46302 0.63157,-0.46302 0.13864,0 0.58191,-0.34429 0.98506,-0.76509 0.69396,-0.7243296 1.66796,-1.1219596 3.00368,-1.2262296 0.45135,-0.0352 0.52808,0.0342 0.31788,0.28742 -0.40529,0.48835 0.14363,0.7359796 0.82414,0.37178 0.30651,-0.16404 0.60645,-0.2491 0.66653,-0.18902 0.18499,0.185 -1.02437,0.6794596 -2.13893,0.8745396 l -1.05834,0.18523 0.75755,0.26271 c 0.56702,0.19664 0.66683,0.32018 0.39687,0.49122 -0.19836,0.12568 -0.47973,0.2285 -0.62525,0.2285 -0.14552,0 -0.10444,-0.10149 0.0913,-0.22554 0.26145,-0.1657 0.16627,-0.27312 -0.35874,-0.40489 -0.46809,-0.11748 -0.93573,-0.0345 -1.35553,0.24058 -0.35251,0.23097 -0.76375,0.34404 -0.91387,0.25126 -0.15012,-0.0928 -0.8909,0.47586 -1.64617,1.26364 -0.75528,0.78778 -1.01604,1.00758 -0.57948,0.48842 l 0.79375,-0.94391 -1.00274,0.92203 c -0.5515,0.50711 -1.07022,1.1909 -1.1527,1.51952 -0.0825,0.32863 -0.24251,0.54031 -0.35562,0.4704 -0.19714,-0.12184 -0.57193,0.65174 -0.92861,1.9167 -0.0923,0.32742 -0.26343,0.59531 -0.38023,0.59531 -0.4045799,0 -0.9264999,2.52198 -0.9034699,4.36563 0.0319,2.55375 0.24872,3.74025 0.8785099,4.80767 0.29617,0.50196 0.38945,0.83715 0.2073,0.74485 -0.18215,-0.0923 -0.15259,-0.01 0.0657,0.1835 0.21828,0.19322 0.43421,0.52947 0.47984,0.74723 0.11867,0.56629 1.39943,2.38029 1.68059,2.38029 0.13001,0 0.84454,0.48072 1.58785,1.06827 0.74331,0.58755 1.8709,1.3049 2.50576,1.59411 1.18284,0.53885 1.55929,1.30637 0.64074,1.30637 -0.68062,0 -0.94195,-0.45632 -0.34958,-0.61041 0.25644,-0.0667 -0.01,-0.10549 -0.59208,-0.0862 -0.85917,0.0285 -1.0443,-0.0494 -0.98376,-0.41408 0.041,-0.24706 -0.16466,-0.57724 -0.45706,-0.73373 -0.44568,-0.23852 -0.50471,-0.21434 -0.36508,0.14953 0.13408,0.34942 -0.0532,0.31193 -0.96092,-0.19232 -1.21292,-0.67383 -3.7154699,-3.43654 -3.7154699,-4.10173 0,-0.22285 -0.14883,-0.35062 -0.33073,-0.28392 -0.1819,0.0667 -0.28025,0.28498 -0.21855,0.48507 0.0617,0.20009 0.0965,0.68735 0.0775,1.08279 -0.0191,0.39545 0.0793,0.78943 0.21856,0.87551 0.13929,0.0861 0.26053,0.35786 0.26942,0.60393 0.009,0.24607 0.5149099,0.81162 1.1244799,1.25678 1.07649,0.78613 1.10584,0.8474 1.0222,2.13385 -0.0674,1.03596 0.0191,1.40719 0.39688,1.70417 0.45087,0.35445 0.4566,0.34603 0.0861,-0.12665 -0.37441,-0.47768 -0.36333,-0.48846 0.1958,-0.19054 0.32598,0.1737 0.5641,0.46108 0.52917,0.63863 -0.0394,0.20036 0.18742,0.29325 0.59795,0.24485 0.49136,-0.0579 0.56522,-0.013 0.28723,0.17478 -0.28206,0.19053 -0.0866,0.33474 0.79375,0.58561 0.64239,0.18306 1.28108,0.43183 1.41933,0.55282 0.34333,0.30048 1.5367,0.2799 1.34933,-0.0233 -0.0827,-0.13379 0.0237,-0.41727 0.23637,-0.62996 0.21268,-0.21269 0.32492,-0.44849 0.24941,-0.524 -0.0755,-0.0755 -0.0186,-0.21069 0.12661,-0.3004 0.14514,-0.0897 0.35006,-0.0237 0.45536,0.14668 0.12763,0.20652 0.076,0.23843 -0.15489,0.0957 -0.22501,-0.13906 -0.28236,-0.11053 -0.16373,0.0814 0.1344,0.21747 0.35478,0.21704 0.83463,-0.002 0.49981,-0.22773 0.82186,-0.21437 1.37962,0.0572 0.40018,0.19487 0.8146,0.36281 0.92094,0.3732 0.10634,0.0104 0.39567,0.30773 0.64295,0.66077 0.42445,0.60599 0.42396,0.63207 -0.009,0.46606 -0.27302,-0.10477 -0.39291,-0.0701 -0.2966,0.0857 0.26969,0.43638 2.76228,0.31331 3.23533,-0.15973 z m -9.62677,-1.1022 c 0.10034,-0.16237 -0.0556,-0.36512 -0.35348,-0.45967 -0.29315,-0.093 -0.533,-0.28021 -0.533,-0.41592 0,-0.13572 -0.21968,-0.24676 -0.48816,-0.24676 -0.26849,0 -0.68359,-0.21593 -0.92243,-0.47986 -0.34693,-0.38335 -0.36848,-0.5508 -0.10716,-0.83257 0.26006,-0.28039 0.25932,-0.31442 -0.004,-0.16598 -0.1819,0.1027 -0.33073,0.0606 -0.33073,-0.0935 0,-0.35263 1.23586,-0.37053 1.45186,-0.021 0.10083,0.16314 0.35204,0.13935 0.67799,-0.0642 0.61027,-0.38112 1.38782,-0.0171 1.5322,0.71734 0.0496,0.25227 0.31749,0.686 0.59531,0.96382 0.68157,0.68157 0.63564,1.03431 -0.13467,1.03431 -0.3519,0 -0.84769,0.0798 -1.10174,0.17726 -0.30099,0.11549 -0.39937,0.0761 -0.28238,-0.11325 z m 1.03175,-0.84283 c -0.32743,-0.27314 -0.59532,-0.67888 -0.59532,-0.90163 0,-0.58512 -0.33742,-0.70963 -1.21329,-0.44771 -0.4241,0.12683 -0.65202,0.24272 -0.5065,0.25756 0.14552,0.0148 0.66767,0.38225 1.16033,0.81649 0.49267,0.43424 1.08798,0.78556 1.32292,0.78072 0.33609,-0.007 0.30024,-0.11469 -0.16814,-0.50543 z m -2.4474,-0.64808 c 0,-0.0572 -0.18478,-0.17489 -0.41062,-0.26156 -0.23546,-0.0904 -0.34166,-0.046 -0.24897,0.10399 0.15538,0.25141 0.65959,0.37185 0.65959,0.15757 z m 9.65805,0.90011 c -0.23895,-0.75286 0.32727,-1.37016 1.16722,-1.27253 0.56606,0.0658 0.6841,0.21649 0.6841,0.87327 0,0.69762 -0.1014,0.80359 -0.83728,0.87498 -0.65864,0.0639 -0.87499,-0.0376 -1.01404,-0.47572 z m 1.36731,-0.64159 c -0.0912,-0.23771 -0.32852,-0.34454 -0.5643,-0.25406 -0.48957,0.18786 -0.53771,0.80121 -0.0762,0.97044 0.4675,0.17142 0.82688,-0.23057 0.64046,-0.71638 z m -4.23844,-1.27768 c 0.0947,-0.15314 -0.0634,-0.18604 -0.39222,-0.0817 -0.8014,0.25436 -2.42595,-0.11022 -2.42595,-0.54442 0,-0.44827 0.10644,-0.45026 2.25773,-0.0422 1.62598,0.30844 2.19133,0.83095 0.96842,0.89504 -0.31157,0.0163 -0.49516,-0.0857 -0.40798,-0.22678 z m -1.23067,-0.46436 c -0.90466,-0.28972 -1.60026,-0.28972 -0.92604,0 0.29104,0.12507 0.76729,0.22389 1.05833,0.21961 0.4254,-0.006 0.39945,-0.0493 -0.13229,-0.21961 z m 3.08681,0.35278 c -0.41931,-0.4193 -0.10077,-0.61502 0.94809,-0.58253 l 1.12447,0.0348 -0.92604,0.19492 -0.92604,0.19492 1.14338,0.0348 c 0.70403,0.0215 1.29588,-0.11767 1.54025,-0.36204 0.35278,-0.35278 0.34333,-0.39874 -0.0851,-0.41365 -0.37922,-0.0132 -0.34986,-0.0697 0.13783,-0.2651 0.99114,-0.39713 1.2313,0.0235 0.40112,0.70257 -0.54207,0.44339 -1.09976,0.6213 -1.96896,0.62812 -0.66697,0.005 -1.29205,-0.0699 -1.38906,-0.16687 z m 5.64444,-2.04018 c 0,-0.52382 0.71045,-1.03868 1.11289,-0.8065 0.18827,0.10862 0.25193,0.0979 0.14146,-0.0237 -0.24967,-0.275 0.85206,-1.48868 1.17192,-1.291 0.12797,0.0791 0.19996,-0.0139 0.15997,-0.20659 -0.04,-0.19272 0.085,-0.31768 0.2777,-0.27769 0.19271,0.04 0.28698,-0.0299 0.20947,-0.15532 -0.19817,-0.32064 0.61401,-1.41417 0.91305,-1.22936 0.13534,0.0837 0.21649,-0.12272 0.18033,-0.45859 -0.0388,-0.36001 0.0646,-0.58533 0.25186,-0.54891 0.20566,0.04 0.28313,-0.21064 0.21979,-0.71111 -0.0698,-0.55148 5.3e-4,-0.73516 0.24528,-0.64122 0.22738,0.0873 0.40658,-0.20671 0.5313,-0.87152 0.10351,-0.55175 0.31107,-1.23277 0.46125,-1.51338 0.41426,-0.77405 0.78516,0.0703 0.4622,1.05221 -0.24602,0.74798 -0.24979,0.74332 -0.12559,-0.15488 0.16254,-1.17546 -0.25247,-0.49986 -0.48758,0.79375 -0.11853,0.65215 -0.0914,0.80866 0.0919,0.52917 0.38415,-0.58602 0.32334,-0.11482 -0.12306,0.95358 -0.21524,0.51512 -0.4842,0.87919 -0.5977,0.80905 -0.1135,-0.0702 -0.435,0.34252 -0.71445,0.91704 -0.27945,0.57451 -1.02252,1.51876 -1.65127,2.09832 -0.68436,0.63082 -1.1448,1.29048 -1.14722,1.6436 -0.003,0.47265 -0.0536,0.51144 -0.25357,0.1952 -0.19871,-0.31431 -0.31639,-0.32778 -0.57803,-0.0661 -0.43227,0.43227 -0.75185,0.41698 -0.75185,-0.036 z m 5.05938,-5.63494 c -0.3119,-0.53637 -0.38722,-0.36469 -0.1319,0.30065 0.0907,0.23646 0.22071,0.37419 0.28883,0.30607 0.0681,-0.0681 -0.002,-0.34115 -0.15693,-0.60672 z m -15.35912,3.90633 c -0.52,-0.39971 -0.66347,-0.78939 -0.75279,-2.04464 -0.0972,-1.36539 -0.0362,-1.61917 0.51015,-2.12258 0.64873,-0.59778 1.16038,-0.70222 3.13405,-0.63973 1.52392,0.0483 2.10272,0.50221 2.41555,1.89453 0.19235,0.85608 0.15903,1.31396 -0.14171,1.94773 -0.37294,0.78592 -0.47882,0.83194 -2.05733,0.89428 -0.91528,0.0362 -1.77896,0.18053 -1.91929,0.32086 -0.34353,0.34353 -0.44321,0.32253 -1.18863,-0.25045 z m 2.44045,-0.55274 c 0.53886,0 0.62222,-0.10431 0.51821,-0.64842 l -0.12396,-0.64842 -0.69925,0.50208 c -0.46482,0.33374 -0.9432,0.45208 -1.42686,0.35299 -0.6341,-0.12993 -0.7276,-0.27356 -0.7276,-1.1177 0,-1.15187 0.5714,-2.06472 1.39139,-2.22286 0.51039,-0.0984 0.51928,-0.11815 0.0638,-0.14159 -1.61299,-0.083 -2.41561,2.48769 -1.18552,3.79706 0.45886,0.48844 0.7071,0.57669 1.07235,0.38121 0.26139,-0.13989 0.76423,-0.25435 1.11742,-0.25435 z m 2.19931,-0.46302 c 0.19332,-0.25466 0.34118,-0.76068 0.32859,-1.12448 -0.0206,-0.59666 -0.0394,-0.5844 -0.19138,0.12516 -0.0995,0.46466 -0.43867,0.9233 -0.82859,1.12058 -0.53818,0.27228 -0.56775,0.33468 -0.1601,0.33786 0.275,0.002 0.65816,-0.20446 0.85148,-0.45912 z m -0.79892,-1.85075 c -0.28456,-0.28455 -0.43563,0.11397 -0.23587,0.62225 0.18737,0.4768 0.20153,0.47763 0.29419,0.0172 0.0535,-0.26605 0.0273,-0.55378 -0.0583,-0.63941 z m -2.41861,0.1745 c -0.0852,-0.13783 -0.26767,-0.18091 -0.40551,-0.0957 -0.13784,0.0852 -0.18091,0.26767 -0.0957,0.40551 0.0852,0.13784 0.26767,0.18092 0.40551,0.0957 0.13784,-0.0852 0.18092,-0.26766 0.0957,-0.40551 z m 1.46918,-0.77115 c 0,-0.14552 -0.12609,-0.26458 -0.2802,-0.26458 -0.15411,0 -0.20662,0.11906 -0.11668,0.26458 0.0899,0.14552 0.21603,0.26459 0.2802,0.26459 0.0642,0 0.11668,-0.11907 0.11668,-0.26459 z m -0.0717,-0.68902 c -0.0879,-0.0879 -0.31613,-0.0973 -0.50712,-0.0209 -0.21107,0.0845 -0.14838,0.14716 0.15985,0.15985 0.27891,0.0115 0.43518,-0.0511 0.34727,-0.13896 z m -5.60486,3.21459 c 0.35718,-0.35719 0.64761,-0.74414 0.64538,-0.8599 -0.01,-0.51065 -0.50505,-0.93623 -0.90903,-0.78121 -0.2949,0.11316 -0.38337,0.0611 -0.27167,-0.15988 0.0911,-0.18024 -0.0218,-0.0966 -0.25084,0.18589 -0.49749,0.61347 -0.53199,0.94162 -0.099,0.94162 0.24695,0 0.24695,0.0706 0,0.3175 -0.50547,0.50547 -0.93077,-0.126 -0.72275,-1.07311 0.20476,-0.93225 0.83231,-1.2228 1.82551,-0.84518 0.56739,0.21572 0.69641,0.43477 0.69641,1.18236 0,0.64827 -0.17259,1.03848 -0.58804,1.32947 -0.88596,0.62055 -1.05841,0.49487 -0.32598,-0.23756 z m 18.90973,-1.00421 c 0.003,-0.4814 0.0531,-0.51937 0.26053,-0.19844 0.3315,0.51296 0.3315,0.79375 0,0.79375 -0.14552,0 -0.26276,-0.26789 -0.26053,-0.59531 z m -8.39512,0.16694 c 0.0901,-0.0901 -0.009,-0.33672 -0.22049,-0.54807 -0.50013,-0.50013 -0.49299,-0.90076 0.0126,-0.70674 0.21828,0.0838 0.39688,0.232 0.39688,0.32942 0,0.0974 0.49193,0.1302 1.09317,0.0729 0.75912,-0.0724 1.03734,-0.0139 0.91043,0.19144 -0.10051,0.16263 -0.46635,0.2957 -0.81297,0.2957 -0.34663,0 -0.70382,0.11906 -0.79375,0.26458 -0.0899,0.14552 -0.2954,0.26459 -0.45659,0.26459 -0.16119,0 -0.21936,-0.0737 -0.12928,-0.16379 z m 2.6478,-0.36884 c 0.0921,-0.35218 -0.0319,-0.62425 -0.36601,-0.80306 -0.40483,-0.21666 -0.5053,-0.5645 -0.5053,-1.7494 v -1.47898 l 0.83651,0.1673 c 0.82351,0.16471 0.82904,0.15905 0.35587,-0.3638 -0.26436,-0.2921 -0.36159,-0.5311 -0.21607,-0.5311 0.14552,0 0.46678,0.22341 0.71389,0.49647 0.38056,0.42052 0.39049,0.51905 0.0649,0.64398 -0.28932,0.11102 -0.33496,0.3666 -0.18456,1.03346 0.13954,0.6187 0.0924,0.98628 -0.15621,1.21854 -0.71582,0.66868 -0.21947,1.02137 0.66256,0.47078 0.2956,-0.18452 0.30017,-0.11486 0.0265,0.40432 -0.55979,1.06211 -1.47704,1.42799 -1.23214,0.49149 z m 0.10318,-2.95657 c -0.0845,-0.21106 -0.14716,-0.14837 -0.15985,0.15986 -0.0115,0.27891 0.051,0.43518 0.13896,0.34726 0.0879,-0.0879 0.0973,-0.31612 0.0209,-0.50712 z m -4.02808,2.67784 c -0.0959,-0.1552 -0.11766,-0.33893 -0.0483,-0.40828 0.0694,-0.0694 0.1966,0.0576 0.28277,0.28218 0.17891,0.46623 0.0264,0.54824 -0.23447,0.1261 z m 0.0392,-1.19466 c -0.24837,-0.64724 -0.19452,-0.73276 0.23627,-0.37523 0.43984,0.36503 0.52658,0.79375 0.1606,0.79375 -0.12995,0 -0.30854,-0.18833 -0.39687,-0.41852 z m 0.70273,-0.1614 c -0.41313,-0.83849 -0.70877,-2.04214 -0.3882,-1.58053 0.18869,0.27172 0.2912,0.21074 0.44476,-0.26458 0.10975,-0.33973 0.23045,-0.70698 0.26822,-0.81612 0.0378,-0.10914 0.0836,-0.26207 0.10173,-0.33985 0.0182,-0.0778 0.39026,0.22398 0.82683,0.67058 1.16708,1.19391 1.04096,2.44089 -0.28044,2.77254 -0.5323,0.1336 -0.73455,0.0417 -0.9729,-0.44204 z m 0.98875,-1.00758 c 0,-0.14552 -0.0525,-0.26459 -0.11667,-0.26459 -0.0642,0 -0.19027,0.11907 -0.2802,0.26459 -0.0899,0.14552 -0.0374,0.26458 0.11667,0.26458 0.15411,0 0.2802,-0.11906 0.2802,-0.26458 z m -13.08557,0.28286 c -0.0837,-0.13546 -0.0325,-0.32026 0.11373,-0.41067 0.16518,-0.10209 0.092,-0.43486 -0.19314,-0.87818 l -0.45911,-0.71381 0.87917,0.72757 c 0.67109,0.55536 1.0466,0.68745 1.58653,0.55809 0.38904,-0.0932 0.70791,-0.18249 0.70859,-0.1984 7.9e-4,-0.0159 -0.0692,-0.68377 -0.15531,-1.48413 -0.14022,-1.30341 -0.16105,-1.34258 -0.19968,-0.37544 -0.0347,0.86961 -0.17739,1.15163 -0.733,1.44898 -0.63332,0.33894 -0.73093,0.31851 -1.19063,-0.24918 -0.27541,-0.34012 -0.50074,-0.81684 -0.50074,-1.05938 0,-0.62473 0.74943,-1.61706 1.22124,-1.61706 0.21862,0 0.33188,-0.10615 0.2517,-0.23589 -0.0802,-0.12973 0.25647,-0.28284 0.7481,-0.34024 0.60076,-0.0701 0.85544,-0.004 0.77666,0.20111 -0.0645,0.16801 0.12621,0.36913 0.42373,0.44693 1.19363,0.31215 1.22769,2.63859 0.0496,3.38815 -0.33269,0.21167 -0.23632,0.25004 0.43157,0.17184 0.47294,-0.0554 0.8599,-0.002 0.8599,0.11809 0,0.23451 -0.26359,0.27485 -2.11667,0.32397 -0.65484,0.0174 -1.34233,-0.0757 -1.52775,-0.20682 -0.18542,-0.13111 -0.42009,-0.15541 -0.5215,-0.054 -0.10141,0.10141 -0.009,0.29514 0.20483,0.43052 0.32941,0.20833 0.32047,0.24677 -0.0582,0.2502 -0.24607,0.002 -0.51591,-0.10678 -0.59963,-0.24225 z m 1.17932,-2.66411 c 0,-0.14552 -0.11906,-0.26459 -0.26458,-0.26459 -0.14552,0 -0.26458,0.11907 -0.26458,0.26459 0,0.14552 0.11906,0.26458 0.26458,0.26458 0.14552,0 0.26458,-0.11906 0.26458,-0.26458 z m 2.38125,-0.51355 c 0,-0.13694 -0.11906,-0.32256 -0.26458,-0.4125 -0.14552,-0.0899 -0.26458,0.0221 -0.26458,0.24897 0,0.22687 0.11906,0.41249 0.26458,0.41249 0.14552,0 0.26458,-0.11203 0.26458,-0.24896 z m -1.05833,-1.06565 c 0,-0.14095 -0.17859,-0.18775 -0.39688,-0.10399 -0.21828,0.0838 -0.39687,0.19909 -0.39687,0.25629 0,0.0572 0.17859,0.10398 0.39687,0.10398 0.21829,0 0.39688,-0.11533 0.39688,-0.25628 z m -3.79236,2.99031 c -0.26791,-0.26791 -0.20289,-2.28361 0.0882,-2.73403 0.22798,-0.35278 0.259,-0.35278 0.27913,0 0.0153,0.26736 0.0969,0.22418 0.25004,-0.13229 0.12506,-0.29104 0.23575,-0.39008 0.24598,-0.22008 0.0102,0.17 0.0984,0.51695 0.19585,0.77101 0.12085,0.31493 0.0787,0.40104 -0.13229,0.27061 -0.21905,-0.13539 -0.30954,0.16133 -0.30954,1.01493 0,1.12504 -0.19571,1.4515 -0.61737,1.02985 z m 0.27532,-1.73876 c -0.0633,-0.32912 -0.11747,-0.12214 -0.1204,0.45994 -0.003,0.58208 0.0488,0.85136 0.11506,0.5984 0.0662,-0.25297 0.0686,-0.72922 0.005,-1.05834 z m 19.12746,1.48996 c 0,-0.26923 0.14556,-0.36932 0.39687,-0.27288 0.25506,0.0979 0.39688,-0.006 0.39688,-0.28919 0,-0.32883 0.0765,-0.36501 0.29971,-0.14178 0.16484,0.16484 0.22811,0.48631 0.1406,0.71438 -0.21154,0.55124 -1.23406,0.54252 -1.23406,-0.0105 z m -0.87103,-0.567 c -0.0789,-0.40018 -0.0822,-1.0429 -0.007,-1.42826 0.11937,-0.6148 0.25449,-0.69586 1.10254,-0.66146 0.87389,0.0354 0.97235,0.11525 1.02765,0.83295 0.0582,0.75484 0.0465,0.76456 -0.23887,0.19844 -0.18624,-0.36954 -0.54171,-0.59532 -0.93727,-0.59532 -0.6053,0 -0.62829,0.0597 -0.45869,1.19063 0.19448,1.29688 -0.24198,1.71103 -0.48798,0.46302 z m -12.35814,-0.0132 c 0,-0.26194 -0.14288,-0.61913 -0.3175,-0.79375 -0.24694,-0.24694 -0.21755,-0.3175 0.13229,-0.3175 0.32338,0 0.44979,0.22308 0.44979,0.79375 0,0.43656 -0.0595,0.79375 -0.13229,0.79375 -0.0728,0 -0.13229,-0.21431 -0.13229,-0.47625 z m 2.97656,0.29916 c -0.37622,-0.0786 -0.59531,-0.31802 -0.59531,-0.65068 0,-0.33051 -0.11367,-0.45613 -0.30546,-0.33759 -0.16801,0.10383 -0.23565,0.0758 -0.15033,-0.0622 0.0853,-0.13806 -0.079,-0.77394 -0.36511,-1.41306 l -0.52025,-1.16202 0.5779,0.51228 0.5779,0.51228 -0.16235,-0.66944 c -0.18091,-0.74596 0.0306,-1.84411 0.35515,-1.84411 0.24492,0 0.18158,0.69292 -0.088,0.96248 -0.10123,0.10123 -0.18405,0.30708 -0.18405,0.45746 0,0.16365 0.12746,0.14594 0.3175,-0.0441 0.49974,-0.49974 0.99096,-0.37414 1.31457,0.33612 0.22772,0.49978 0.21876,0.74887 -0.0381,1.05833 -0.39439,0.47522 -1.32942,0.54276 -1.32942,0.096 0,-0.16977 -0.0787,-0.23003 -0.17477,-0.13391 -0.0961,0.0961 0.005,0.38386 0.22437,0.63941 0.21953,0.25555 0.47303,0.673 0.56334,0.92766 0.0964,0.27185 0.4343,0.46302 0.81835,0.46302 0.78985,0 1.15517,-0.46703 0.54767,-0.70014 -0.34836,-0.13369 -0.365,-0.21214 -0.0829,-0.39096 0.26142,-0.16571 0.21572,-0.22685 -0.17625,-0.23581 -0.48811,-0.0112 -0.49308,-0.0331 -0.064,-0.28295 0.25582,-0.14897 0.613,-0.18203 0.79375,-0.0735 0.25465,0.15296 0.25344,0.10452 -0.005,-0.21516 -0.27252,-0.33663 -0.25917,-0.47466 0.0725,-0.74995 0.22359,-0.18557 0.48303,-0.2609 0.57653,-0.1674 0.0935,0.0935 0.0348,0.17 -0.13038,0.17 -0.16521,0 -0.22878,0.18659 -0.14126,0.41466 0.11276,0.29385 0.24139,0.33239 0.44149,0.13229 0.1553,-0.1553 0.40738,-0.27841 0.56018,-0.27357 0.1528,0.005 -0.003,0.24297 -0.34681,0.52917 -0.37503,0.31243 -0.48076,0.52198 -0.26459,0.52441 0.30027,0.003 0.2995,0.0424 -0.005,0.23501 -0.20054,0.12702 -0.28909,0.35315 -0.19678,0.50251 0.0923,0.14936 0.0183,0.33187 -0.16454,0.40557 -0.21277,0.0858 -0.17672,0.14152 0.10019,0.15489 0.53283,0.0257 1.39367,-2.4019 1.1377,-3.20839 -0.13657,-0.4303 -0.22159,-0.46795 -0.40452,-0.17912 -0.18129,0.28625 -0.23249,0.29045 -0.23566,0.0193 -0.002,-0.19049 -0.12311,-0.27276 -0.26863,-0.18282 -0.14552,0.0899 -0.26459,0.0229 -0.26459,-0.14907 0,-0.23414 -0.0988,-0.23063 -0.3935,0.014 -0.47541,0.39455 -1.194,0.17029 -1.194,-0.37263 0,-0.21562 0.20836,-0.51339 0.46303,-0.66172 0.35439,-0.20641 0.0906,-0.27717 -1.12448,-0.30159 -1.50942,-0.0303 -1.5425,-0.0448 -0.67266,-0.29443 1.35712,-0.38944 3.13361,-0.0383 3.87978,0.76678 0.92265,0.99557 0.80885,2.98578 -0.27128,4.74424 -0.0845,0.13748 -2.5081,0.2815 -3.00199,0.17838 z m 0.1146,-3.04752 c -0.0845,-0.21107 -0.14716,-0.14837 -0.15986,0.15985 -0.0115,0.27892 0.051,0.43519 0.13897,0.34727 0.0879,-0.0879 0.0973,-0.31613 0.0209,-0.50712 z m 2.82515,-1.84315 c -0.549,-0.60664 -0.76697,-0.61075 -1.35225,-0.0255 -0.44097,0.44097 -0.40927,0.46423 0.66566,0.48849 1.08113,0.0244 1.11005,0.005 0.68659,-0.46302 z m 3.01338,4.86724 c -0.76062,-0.16898 -0.5241,-0.59323 0.33073,-0.59323 0.43656,0 0.79375,0.10632 0.79375,0.23627 0,0.31174 -0.54675,0.4853 -1.12448,0.35696 z m -8.22653,-1.3195 c -0.0765,-0.12377 -0.0297,-0.39795 0.104,-0.60928 0.19518,-0.30854 0.24467,-0.27999 0.25117,0.14492 0.007,0.44655 0.0519,0.46721 0.28878,0.1323 0.2283,-0.32281 0.26148,-0.3259 0.17785,-0.0165 -0.12241,0.45278 -0.62552,0.66619 -0.8218,0.3486 z m 15.45731,-0.75099 c 0.0127,-0.30822 0.0754,-0.37092 0.15985,-0.15985 0.0764,0.19099 0.067,0.4192 -0.0209,0.50712 -0.0879,0.0879 -0.15045,-0.0684 -0.13896,-0.34727 z m 0.55005,-0.11024 c 0,-0.3638 0.0601,-0.51263 0.13346,-0.33073 0.0734,0.1819 0.0734,0.47956 0,0.66146 -0.0734,0.1819 -0.13346,0.0331 -0.13346,-0.33073 z m -17.59246,-0.17639 c -0.097,-0.097 -0.17639,-0.29942 -0.17639,-0.44979 0,-0.16579 0.12323,-0.15017 0.31309,0.0397 0.1722,0.1722 0.25157,0.37461 0.17639,0.44979 -0.0752,0.0752 -0.21608,0.0573 -0.31309,-0.0397 z m 10.13849,-0.35543 c -0.26486,-0.16387 0.1132,-0.23718 1.15941,-0.22481 1.81224,0.0214 2.47689,-0.44842 2.71564,-1.91966 0.12146,-0.74846 0.0144,-1.08608 -0.56115,-1.77012 -0.81258,-0.96569 -0.42051,-1.15478 0.49537,-0.2389 0.77636,0.77636 0.77711,2.8702 0.001,3.63485 -0.56493,0.5568 -3.17476,0.91201 -3.81056,0.51864 z m -1.1693,-0.76285 c -0.0995,-0.16106 -0.0392,-0.29283 0.13405,-0.29283 0.21311,0 0.27056,-0.33163 0.17757,-1.02493 -0.10643,-0.79347 -0.024,-1.12209 0.36506,-1.45521 0.53181,-0.45534 1.24136,-0.5506 1.69675,-0.22779 0.39159,0.27759 0.47829,2.04341 0.1321,2.69028 -0.31422,0.58711 -1.43967,0.75076 -1.7467,0.25399 -0.12932,-0.20926 -0.23761,-0.2012 -0.37941,0.0282 -0.14181,0.22944 -0.25009,0.2375 -0.37942,0.0283 z m 1.57004,-1.35116 c 0.0899,-0.14552 -0.0291,-0.26459 -0.26458,-0.26459 -0.23546,0 -0.35452,0.11907 -0.26459,0.26459 0.0899,0.14552 0.209,0.26458 0.26459,0.26458 0.0556,0 0.17464,-0.11906 0.26458,-0.26458 z m 1.42362,1.40746 c -0.0174,-0.11926 -0.008,-0.88141 0.0218,-1.69367 0.0527,-1.45742 0.0418,-1.48054 -0.82831,-1.75893 l -0.88167,-0.28209 0.87879,-0.027 c 0.48334,-0.0149 1.05848,0.15268 1.2781,0.37229 0.21962,0.21962 0.48715,0.34502 0.5945,0.27867 0.10736,-0.0663 0.34307,0.28831 0.52381,0.78813 0.26554,0.73432 0.26159,1.04903 -0.0206,1.63956 -0.3235,0.67705 -1.49301,1.18702 -1.56644,0.68305 z m 1.00869,-1.86545 c -0.0671,-0.25743 -0.12638,-0.11087 -0.13177,0.32569 -0.005,0.43657 0.0495,0.64719 0.12197,0.46806 0.0725,-0.17913 0.0769,-0.53632 0.01,-0.79375 z m 3.75163,0.78872 c -0.0573,-2.1328 -0.22325,-3.00611 -0.62769,-3.30325 -0.16114,-0.11838 -0.12788,-0.19596 0.085,-0.19843 0.19229,-0.002 0.51972,0.16604 0.72761,0.37392 0.40729,0.4073 0.51607,0.79694 0.16126,0.57766 -0.11919,-0.0737 -0.15763,0.24673 -0.0854,0.71198 0.12599,0.81187 0.13798,0.8193 0.29779,0.18447 l 0.16653,-0.66146 0.17988,0.66146 c 0.0989,0.3638 0.16367,1.19724 0.14385,1.85208 -0.0268,0.88478 -0.0651,0.98673 -0.14904,0.39688 -0.16473,-1.1571 -0.5437,-1.39166 -0.45566,-0.28203 0.0412,0.51891 -0.0343,0.94349 -0.16775,0.94349 -0.13344,0 -0.25782,-0.56555 -0.27639,-1.25677 z m -23.19665,0.4101 c -0.53636,-0.53636 -0.39573,-1.50759 0.21167,-1.46184 0.29104,0.0219 0.52917,0.1861 0.52917,0.36482 0,0.17873 0.13745,0.40991 0.30546,0.51374 0.16801,0.10384 0.23628,0.0768 0.15172,-0.06 -0.0846,-0.13682 0.069,-0.24876 0.34133,-0.24876 0.37341,0 0.4257,0.0836 0.21277,0.34018 -0.39538,0.4764 -0.93651,0.42342 -1.25467,-0.12285 -0.24893,-0.42738 -0.27031,-0.42839 -0.27773,-0.0131 -0.004,0.24743 0.20031,0.57123 0.45497,0.71956 0.38115,0.222 0.39051,0.27111 0.0529,0.27773 -0.22556,0.004 -0.55298,-0.13483 -0.7276,-0.30945 z m 1.80882,-0.22132 c 0.54587,-0.54586 0.51213,-0.77531 -0.24833,-1.68886 -0.39035,-0.46893 -0.38785,-0.49515 0.0326,-0.34197 0.25045,0.0913 0.61809,0.003 0.81698,-0.19571 0.55961,-0.5596 1.06679,-0.10083 0.58813,0.532 -0.21364,0.28246 -0.39222,0.75765 -0.39685,1.05596 -0.01,0.61754 -0.47909,1.1774 -0.98738,1.1774 -0.21843,0 -0.14732,-0.19664 0.19486,-0.53882 z m 6.15593,0.0758 c -0.004,-0.25466 0.12457,-0.6347 0.28663,-0.84454 0.23601,-0.30557 0.21567,-0.33343 -0.10221,-0.13997 -0.21828,0.13286 -0.90147,0.24501 -1.5182,0.24923 -0.87832,0.006 -1.09407,-0.0783 -0.99554,-0.3892 0.087,-0.27437 -0.0768,-0.40861 -0.53058,-0.43492 -0.42581,-0.0247 -0.59452,0.0683 -0.48033,0.26459 0.0968,0.16644 -0.0745,0.0831 -0.38078,-0.18526 -0.30624,-0.26833 -0.49718,-0.64324 -0.42432,-0.83313 0.0729,-0.18989 0.005,-0.42385 -0.15013,-0.51992 -0.15544,-0.0961 -0.27322,-0.376 -0.26173,-0.62208 0.0154,-0.33062 0.059,-0.35127 0.16685,-0.0791 0.0952,0.24013 0.27179,0.0691 0.50753,-0.49161 0.2531,-0.60195 0.48496,-0.81255 0.77293,-0.70204 0.22625,0.0868 0.34491,0.0503 0.26368,-0.0811 -0.0812,-0.13143 0.002,-0.29661 0.1847,-0.36708 0.18281,-0.0705 -0.0155,-0.0981 -0.44069,-0.0615 -0.43104,0.0372 -1.0065,0.34723 -1.30069,0.70084 -0.44956,0.54035 -0.50146,0.55589 -0.35077,0.10501 0.17416,-0.52106 0.17078,-0.5213 -0.22066,-0.0156 -0.30148,0.38952 -0.39752,0.41772 -0.39752,0.11673 0,-0.43678 0.40926,-0.99449 1.13053,-1.54061 0.40539,-0.30695 0.447,-0.29763 0.30646,0.0686 -0.12856,0.33503 -0.0329,0.39325 0.45697,0.278 0.90342,-0.21255 2.43116,-0.11181 2.7225,0.17952 0.14817,0.14818 0.15138,0.25187 0.008,0.25187 -0.13424,0 0.0205,0.18535 0.34396,0.41188 0.32807,0.22979 0.58803,0.69076 0.58803,1.04272 0,0.34696 0.11907,0.70442 0.26459,0.79436 0.14552,0.0899 0.26458,0.0374 0.26458,-0.11667 0,-0.15411 0.11533,-0.2802 0.25628,-0.2802 0.31377,0 0.062,0.76942 -0.44602,1.36279 -0.20564,0.24022 -0.26693,0.50287 -0.13619,0.58366 0.27159,0.16786 0.10049,1.75771 -0.18917,1.75771 -0.10475,0 -0.19407,-0.20836 -0.19849,-0.46302 z m -0.051,-1.71979 c 0.29743,-0.56681 0.28838,-0.5748 -0.18913,-0.16681 -0.27584,0.23567 -0.68012,0.49416 -0.8984,0.57442 -0.26353,0.0969 -0.19999,0.15295 0.18913,0.16682 0.35296,0.0126 0.71024,-0.21586 0.8984,-0.57443 z m -1.35211,-2.05052 c 0,-0.99954 -0.097,-1.32292 -0.39688,-1.32292 -0.21828,0 -0.39687,0.11907 -0.39687,0.26459 0,0.14552 0.11906,0.26458 0.26458,0.26458 0.14552,0 0.26458,0.47625 0.26458,1.05833 0,0.58209 0.0595,1.05834 0.1323,1.05834 0.0728,0 0.13229,-0.59531 0.13229,-1.32292 z m -1.32292,0.51356 c 0,-0.13694 -0.11906,-0.24897 -0.26458,-0.24897 -0.14552,0 -0.26458,0.18562 -0.26458,0.41249 0,0.22687 0.11906,0.3389 0.26458,0.24897 0.14552,-0.0899 0.26458,-0.27556 0.26458,-0.41249 z m 2.2919,-0.31512 c -0.0734,-0.1819 -0.13346,-0.0331 -0.13346,0.33073 0,0.3638 0.0601,0.51263 0.13346,0.33073 0.0734,-0.1819 0.0734,-0.47956 0,-0.66146 z m 1.16857,3.61598 c 0.0127,-0.30823 0.0754,-0.37092 0.15986,-0.15986 0.0764,0.191 0.067,0.4192 -0.0209,0.50712 -0.0879,0.0879 -0.15046,-0.0684 -0.13897,-0.34726 z m 6.32912,-1.78203 c 0,-0.49395 0.43153,-0.81691 0.64026,-0.47918 0.0812,0.13141 -0.0296,0.38605 -0.2463,0.56588 -0.32033,0.26584 -0.39396,0.24964 -0.39396,-0.0867 z m -3.55568,-1.47701 c -0.081,-0.13111 0.2678,-0.22662 0.77518,-0.21223 0.55757,0.0158 0.79285,0.1085 0.59473,0.23433 -0.44402,0.282 -1.1894,0.26998 -1.36991,-0.0221 z m 2.4312,-0.0345 c 0.32742,-0.13161 0.59531,-0.28234 0.59531,-0.33497 0,-0.0526 -0.26789,-0.0862 -0.59531,-0.0747 -0.56151,0.0198 -0.59532,-0.082 -0.59532,-1.7927 v -1.81371 l -1.23779,0.1194 c -1.19702,0.11547 -1.23605,0.0968 -1.18499,-0.56754 0.0349,-0.45426 0.20773,-0.68694 0.51019,-0.68694 0.25156,0 0.44548,0.11906 0.43093,0.26458 -0.0145,0.14552 -0.13362,0.23482 -0.26459,0.19844 -0.13096,-0.0364 -0.23812,0.0383 -0.23812,0.16593 0,0.12765 0.53578,0.1717 1.19062,0.0979 0.9487,-0.10693 1.19063,-0.0523 1.19063,0.26878 0,0.48083 0.87381,0.88086 1.01287,0.46369 0.15632,-0.46897 0.83921,0.2411 0.83921,0.87262 0,0.5373 -0.007,0.53793 -0.37519,0.0342 -0.33054,-0.45203 -0.34106,-0.36394 -0.0884,0.74003 0.2499,1.09207 0.22484,1.32157 -0.19498,1.78546 -0.26496,0.29277 -0.73118,0.52477 -1.03604,0.51554 -0.53543,-0.0162 -0.53403,-0.0249 0.041,-0.25605 z m 0.36167,-2.68042 c -0.20087,-0.53143 -0.23445,-0.47143 -0.23822,0.42568 -0.003,0.75645 0.0613,0.92697 0.23383,0.61863 0.13917,-0.24867 0.14099,-0.68293 0.004,-1.04431 z m -5.58719,1.77824 c 0,-0.42546 -0.14749,-0.67708 -0.39688,-0.67708 -0.21828,0 -0.39687,-0.12325 -0.39687,-0.27389 0,-0.18582 0.15952,-0.18852 0.49611,-0.008 0.557,0.2981 0.90476,1.26119 0.53738,1.48825 -0.13186,0.0815 -0.23974,-0.15651 -0.23974,-0.5289 z m 1.279,-0.21406 c -0.40492,-0.65262 -0.34223,-1.89229 0.0824,-1.62985 0.14589,0.0902 0.54244,-0.0965 0.88123,-0.41474 0.36744,-0.34519 0.86663,-0.5432 1.23718,-0.49075 0.55848,0.0791 0.62922,0.24158 0.70056,1.6093 l 0.0794,1.52136 h -0.92424 c -0.65515,0 -1.04417,-0.17121 -1.33613,-0.58804 -0.22653,-0.32342 -0.41187,-0.4663 -0.41187,-0.3175 0,0.14879 0.14287,0.41341 0.3175,0.58804 0.20955,0.20955 0.21989,0.3175 0.0304,0.3175 -0.15789,0 -0.45328,-0.2679 -0.65643,-0.59532 z m 1.67992,-1.04951 c -0.18986,-0.18986 -0.31309,-0.20548 -0.31309,-0.0397 0,0.15037 0.0794,0.35278 0.17639,0.44979 0.097,0.097 0.2379,0.11487 0.31309,0.0397 0.0752,-0.0752 -0.004,-0.27759 -0.17639,-0.44979 z m 9.77184,0.0293 c -0.4924,-0.71621 -1.29608,-1.6541 -1.78594,-2.0842 -0.48986,-0.43011 -0.89066,-0.89479 -0.89066,-1.03263 0,-0.13784 -0.13842,-0.29676 -0.30761,-0.35316 -0.3481,-0.11603 -0.55189,-0.99989 -0.23054,-0.99989 0.30571,0 0.73173,0.58753 0.84041,1.15901 0.052,0.27366 0.36497,0.67677 0.6954,0.8958 0.55886,0.37046 0.58805,0.36343 0.41816,-0.10067 -0.17774,-0.48558 -0.16775,-0.48588 0.37356,-0.011 0.3059,0.26833 0.5242,0.62552 0.4851,0.79375 -0.0391,0.16822 -0.0209,0.21583 0.0404,0.10578 0.0613,-0.11005 0.25019,-0.12061 0.41966,-0.0235 0.16947,0.0971 0.0199,-0.13978 -0.33232,-0.52648 -0.35225,-0.38669 -0.57865,-0.76488 -0.50311,-0.84042 0.24199,-0.24199 1.56647,1.27327 1.42812,1.63382 -0.0733,0.19095 -0.004,0.31884 0.15491,0.2842 0.15847,-0.0346 0.34823,0.10243 0.42168,0.30459 0.0915,0.25177 0.0186,0.30205 -0.23151,0.15962 -0.29484,-0.16794 -0.30144,-0.1394 -0.0343,0.14838 0.1819,0.19597 0.33072,0.53385 0.33072,0.75084 0,0.29694 -0.0986,0.26749 -0.39841,-0.11906 -0.37031,-0.47735 -0.37912,-0.45965 -0.12489,0.25071 0.40895,1.14269 0.22284,1.04697 -0.76885,-0.39546 z m -4.42814,0.43758 c -0.0811,-0.21131 -0.0922,-0.4792 -0.0248,-0.59531 0.0674,-0.11611 0.016,-0.44923 -0.11428,-0.74028 -0.21812,-0.4872 -0.22795,-0.48196 -0.12395,0.0662 0.0621,0.32743 0.005,0.59532 -0.12686,0.59532 -0.13191,0 -0.23983,-0.29766 -0.23983,-0.66146 0,-0.41158 0.14994,-0.66146 0.39688,-0.66146 0.21828,0 0.39687,0.11078 0.39687,0.24618 0,0.1354 0.25573,0.28423 0.56829,0.33073 0.69485,0.10338 1.16178,0.78659 0.93733,1.3715 -0.20652,0.53819 -1.4677,0.57492 -1.66966,0.0486 z m 1.16174,-0.45915 c -0.16353,-0.4906 -0.73311,-0.57197 -0.73311,-0.10473 0,0.2304 0.18851,0.41892 0.41892,0.41892 0.23041,0 0.37179,-0.14139 0.31419,-0.31419 z m 5.40522,-0.003 c -0.17463,-0.17463 -0.31388,-0.50205 -0.30945,-0.72761 0.006,-0.3041 0.0856,-0.27332 0.30811,0.11906 0.16504,0.29105 0.42931,0.61664 0.58727,0.72356 0.19209,0.13001 0.1952,0.19573 0.009,0.19843 -0.1528,0.002 -0.42069,-0.13882 -0.59531,-0.31344 z m -17.92317,-3.66886 c -0.0959,-0.15521 -0.11087,-0.34572 -0.0332,-0.42337 0.18952,-0.18953 0.70555,0.14441 0.70555,0.45659 0,0.33813 -0.45678,0.31556 -0.67233,-0.0332 z m 11.15611,-0.45861 c -0.0719,-0.1164 0.0754,-0.34037 0.32732,-0.49772 0.37145,-0.23198 0.46521,-0.19194 0.49561,0.21162 0.0369,0.48969 -0.56729,0.69973 -0.82293,0.2861 z m -1.09107,-0.58212 c -0.0899,-0.14552 -0.0445,-0.26459 0.10107,-0.26459 0.14552,0 0.33816,0.11907 0.4281,0.26459 0.0899,0.14552 0.0445,0.26458 -0.10106,0.26458 -0.14552,0 -0.33817,-0.11906 -0.42811,-0.26458 z m -7.85481,-0.18074 c 0.19099,-0.0764 0.41919,-0.067 0.50712,0.0209 0.0879,0.0879 -0.0684,0.15045 -0.34727,0.13896 -0.30823,-0.0127 -0.37092,-0.0754 -0.15985,-0.15985 z m 9.83919,-0.34843 c -0.23847,-0.15411 -0.2711,-0.2581 -0.0818,-0.26053 0.17331,-0.002 0.3887,0.11501 0.47864,0.26053 0.20301,0.32849 0.11142,0.32849 -0.39688,0 z m -4.29948,-0.18239 c -0.25466,-0.0666 -0.46302,-0.3503896 -0.46302,-0.6307596 0,-0.55074 0.63536,-0.63485 1.85208,-0.24518 0.61474,0.19687 0.59606,0.21556 -0.26458,0.26458 -0.83606,0.0476 -0.86177,0.0707 -0.26458,0.23699 0.58144,0.16196 0.60283,0.20678 0.17679,0.3704996 -0.26656,0.10244 -0.50468,0.17245 -0.52916,0.15557 -0.0245,-0.0169 -0.25287,-0.0851 -0.50753,-0.1517 z m 3.37344,-0.0822 c -0.0899,-0.1455196 -0.0374,-0.2645796 0.11667,-0.2645796 0.15411,0 0.2802,0.11906 0.2802,0.2645796 0,0.14553 -0.0525,0.26459 -0.11667,0.26459 -0.0642,0 -0.19027,-0.11906 -0.2802,-0.26459 z m 0.0359,-0.6024796 c -0.29996,-0.21934 -0.44844,-0.59829 -0.39176,-0.99984 0.0728,-0.51563 0.24624,-0.64663 0.85619,-0.64663 0.9441,0 1.48488,0.71035 1.05745,1.38906 -0.38061,0.60439 -0.9221,0.69598 -1.52188,0.25741 z m 1.02243,-0.72043 c 0,-0.2143 -0.20836,-0.42976 -0.46302,-0.4788 -0.32487,-0.0626 -0.46302,0.0803 -0.46302,0.4788 0,0.3985 0.13815,0.54136 0.46302,0.4788 0.25466,-0.049 0.46302,-0.26451 0.46302,-0.4788 z m 2.51354,0 c 0,-0.14552 0.12609,-0.26459 0.2802,-0.26459 0.15411,0 0.20661,0.11907 0.11668,0.26459 -0.0899,0.14552 -0.21603,0.26458 -0.2802,0.26458 -0.0642,0 -0.11668,-0.11906 -0.11668,-0.26458 z m -0.92604,-0.84375 -0.52917,-0.54771 0.59532,0.30816 c 0.32742,0.16949 0.59531,0.42304 0.59531,0.56344 0,0.33783 -0.042,0.31725 -0.66146,-0.32389 z m 3.3318,27.1571196 c 0.43559,-0.22525 0.9057,-0.70867 1.0447,-1.07426 0.13899,-0.36558 0.34224,-0.61348 0.45165,-0.55088 0.10941,0.0626 0.46569,-0.21559 0.79173,-0.6182 0.4824,-0.59571 0.52113,-0.75952 0.20794,-0.8797 -0.23409,-0.0898 -0.60379,0.1598 -0.94375,0.63723 -0.3074,0.4317 -0.65933,0.72285 -0.78207,0.64699 -0.27695,-0.17116 -1.32388,1.12434 -1.32388,1.6382 0,0.20725 -0.11906,0.30323 -0.26458,0.21329 -0.14552,-0.0899 -0.26458,-0.0374 -0.26458,0.11668 0,0.37246 0.14622,0.35499 1.08284,-0.12935 z M 8.9579771,33.286312 c 0,-0.14552 -0.0525,-0.26458 -0.11668,-0.26458 -0.0642,0 -0.19026,0.11906 -0.2802,0.26458 -0.0899,0.14552 -0.0374,0.26458 0.11668,0.26458 0.15411,0 0.2802,-0.11906 0.2802,-0.26458 z m 1.5158399,-0.15985 c -0.0879,-0.0879 -0.31613,-0.0973 -0.5071199,-0.0209 -0.21107,0.0845 -0.14837,0.14715 0.1598499,0.15985 0.27892,0.0115 0.43519,-0.051 0.34727,-0.13897 z m -2.2507199,-0.78119 c -0.32342,-0.22654 -0.58804,-0.53991 -0.58804,-0.69638 0,-0.40975 -1.093177,-2.1201 -1.252951,-1.96032 -0.07384,0.0738 0.173697,0.65974 0.550085,1.30199 0.376386,0.64226 0.599216,1.26204 0.495166,1.37729 -0.10405,0.11525 -0.0404,0.1239 0.14155,0.0192 0.1819,-0.10468 0.33073,-0.0642 0.33073,0.0899 0,0.15411 0.20509,0.2802 0.45575,0.2802 0.37462,0 0.35107,-0.0733 -0.13229,-0.41188 z m 4.9682099,0.056 c 0,-0.0502 -0.26789,-0.3181 -0.59531,-0.59532 l -0.59532,-0.50403 0.50403,0.59532 c 0.47367,0.55944 0.6866,0.71576 0.6866,0.50403 z m 1.03628,0.0251 c -0.0606,-0.0364 -0.46743,-0.3638 -0.90399,-0.72761 l -0.79375,-0.66145 0.64143,0.7276 c 0.35279,0.40018 0.75959,0.7276 0.904,0.7276 0.1444,0 0.21295,-0.0298 0.15231,-0.0661 z m -5.0050299,-0.66873 c 0,-0.11315 -0.19918,-0.49008 -0.44262,-0.83764 -0.24343,-0.34756 -0.30297,-0.54562 -0.13229,-0.44013 0.20328,0.12563 0.30975,-0.0189 0.30865,-0.41914 -0.001,-0.40075 -0.27418,-0.76599 -0.79375,-1.06164 -0.43564,-0.2479 -0.79207,-0.63485 -0.79207,-0.8599 0,-0.51177 -0.496407,-0.53784 -0.68891,-0.0362 -0.137867,0.35927 0.55482,2.00826 0.84361,2.00826 0.0776,0 0.0675,-0.11907 -0.0224,-0.26459 -0.0899,-0.14552 -0.0374,-0.26458 0.11667,-0.26458 0.15411,0 0.2802,0.29766 0.2802,0.66146 0,0.3638 0.12609,0.66146 0.2802,0.66146 0.15411,0 0.20662,0.11906 0.11668,0.26458 -0.0899,0.14552 -0.0899,0.38365 0,0.52917 0.19235,0.31123 0.92604,0.35787 0.92604,0.0589 z m 26.7229199,-1.11721 c -0.15576,-0.29105 -0.34274,-0.52917 -0.4155,-0.52917 -0.0728,0 -0.005,0.23812 0.15091,0.52917 0.15576,0.29104 0.34274,0.52916 0.4155,0.52916 0.0728,0 0.005,-0.23812 -0.15091,-0.52916 z M 6.0475561,29.846682 c -0.1691,-0.31597 -0.36559,-0.51636 -0.436644,-0.44531 -0.07105,0.071 0.02339,0.3735 0.209859,0.67209 0.186476,0.2986 0.382964,0.49898 0.436645,0.4453 0.05368,-0.0537 -0.04076,-0.35612 -0.20986,-0.67208 z m 0.160465,-1.32232 c -0.03291,-0.92656 -0.425048,-1.08985 -0.425048,-0.17699 0,0.51441 0.189312,0.97014 0.403,0.97014 0.02762,0 0.03754,-0.35692 0.02204,-0.79315 z m 2.842716,-0.73277 c -0.085,-0.32491 -0.26385,-0.59075 -0.39752,-0.59075 -0.13366,0 -0.10648,0.26789 0.0604,0.59532 0.28529,0.55969 0.26185,0.55511 -0.39183,-0.0764 -0.4148,-0.40076 -0.7886,-1.14788 -0.92661,-1.85209 -0.2007,-1.02402 -0.23518,-1.06933 -0.26033,-0.34209 -0.016,0.46104 -0.10126,1.02659 -0.189587,1.25677 -0.106008,0.27626 -0.01384,0.41851 0.271137,0.41851 0.23745,0 0.54015,0.28517 0.67266,0.63371 0.4293,1.12915 1.45822,1.0911 1.16165,-0.043 z m -3.553591,-0.32616 c 0.297035,-0.6237 0.291526,-0.63214 -0.09645,-0.14787 -0.226311,0.28247 -0.411472,0.62974 -0.411472,0.7717 0,0.33616 0.122211,0.18606 0.507922,-0.62383 z m 1.135444,-1.95848 c -0.169849,-0.68254 -0.849617,-1.71546 -0.849617,-1.29101 0,0.16931 0.132797,0.38991 0.295106,0.49023 0.18229,0.11266 0.242805,0.6464 0.1583,1.39613 -0.123455,1.09529 -0.104055,1.15256 0.198766,0.58673 0.184562,-0.34486 0.273412,-0.8768 0.197445,-1.18208 z m 1.558407,0.44709 c -0.25416,-0.43672 -0.27588,-0.43072 -0.28331,0.0782 -0.009,0.61247 0.32682,1.09003 0.46819,0.66592 0.0497,-0.14914 -0.0335,-0.484 -0.18488,-0.74414 z m 30.5692099,-0.73757 c -0.0838,-0.21828 -0.0299,-0.39688 0.1196,-0.39688 0.14954,0 0.20302,-0.11143 0.11885,-0.24763 -0.0842,-0.1362 -0.0513,-0.70175 0.0731,-1.25677 0.23324,-1.04056 0.15771,-1.6706 -0.20027,-1.6706 -0.26275,0 -0.58494,3.02715 -0.37925,3.56318 0.0856,0.22307 0.21517,0.40557 0.28793,0.40557 0.0728,0 0.0638,-0.17859 -0.02,-0.39687 z M 7.8158571,24.769732 c -0.0845,-0.21106 -0.14716,-0.14837 -0.15985,0.15986 -0.0115,0.27891 0.051,0.43518 0.13896,0.34726 0.0879,-0.0879 0.0973,-0.31612 0.0209,-0.50712 z m -0.70991,-0.30625 c 0,-0.0502 -0.267888,-0.3181 -0.59531,-0.59532 l -0.595312,-0.50403 0.504028,0.59532 c 0.473663,0.55944 0.686594,0.71576 0.686594,0.50403 z m 1.50366,-1.28125 c -0.0845,-0.21106 -0.14716,-0.14837 -0.15985,0.15986 -0.0115,0.27891 0.051,0.43518 0.13896,0.34726 0.0879,-0.0879 0.0973,-0.31612 0.0209,-0.50712 z m 28.5871899,0.15434 c -0.0879,-0.0879 -0.31613,-0.0973 -0.50712,-0.0209 -0.21107,0.0845 -0.14838,0.14716 0.15985,0.15985 0.27891,0.0115 0.43518,-0.0511 0.34727,-0.13896 z M 4.6540851,22.224352 c -0.214225,-0.24625 -0.455171,-0.62631 -0.535429,-0.84459 -0.08026,-0.21828 -0.153506,0.0794 -0.162767,0.66146 -0.01196,0.75116 0.05465,0.94529 0.229463,0.66887 0.207409,-0.32796 0.277101,-0.30919 0.441381,0.11891 0.123428,0.32166 0.235807,0.3862 0.305966,0.17572 0.06099,-0.18297 -0.06439,-0.53413 -0.278614,-0.78037 z m 33.3242719,0.16413 c -0.0845,-0.21106 -0.14716,-0.14837 -0.15985,0.15986 -0.0115,0.27891 0.0511,0.43518 0.13896,0.34726 0.0879,-0.0879 0.0973,-0.31612 0.0209,-0.50712 z M 7.8996971,20.599252 c 0,-0.32238 -0.76365,-0.20871 -0.894858,0.1332 -0.08023,0.20907 0.05562,0.27589 0.385488,0.18963 0.28016,-0.0733 0.50937,-0.21854 0.50937,-0.32283 z m -2.690802,-1.73303 0.0078,-0.52917 -0.227391,0.52917 c -0.125067,0.29104 -0.223891,0.82682 -0.219613,1.19062 l 0.0078,0.66146 0.211833,-0.66146 c 0.116508,-0.3638 0.215336,-0.89958 0.219611,-1.19062 z m 3.283202,0.27259 c 0.0687,-0.3594 0.023,-0.5905 -0.10145,-0.51355 -0.21923,0.13548 -0.32964,1.167 -0.12492,1.167 0.0558,0 0.15766,-0.29405 0.22637,-0.65345 z m -3.671716,-1.06634 c 0.08376,-0.21828 0.03697,-0.39688 -0.103984,-0.39688 -0.140954,0 -0.256281,0.1786 -0.256281,0.39688 0,0.21828 0.04679,0.39687 0.103984,0.39687 0.05719,0 0.172517,-0.17859 0.256281,-0.39687 z m 1.491819,-0.76289 c 0,-0.0558 -0.238125,-0.16371 -0.529167,-0.23982 -0.291042,-0.0761 -0.529167,-0.0305 -0.529167,0.10144 0,0.13189 0.238125,0.23981 0.529167,0.23981 0.291042,0 0.529167,-0.0456 0.529167,-0.10143 z m 1.475997,-1.34243 c 0.26509,-1.0562 0.004,-1.28875 -0.31276,-0.2781 -0.15979,0.51051 -0.1915,0.92821 -0.0705,0.92821 0.12104,0 0.29349,-0.29255 0.38323,-0.65011 z m 30.1398399,0.12397 c 0.0927,-0.14998 -0.0135,-0.19433 -0.24897,-0.10398 -0.45837,0.17589 -0.54223,0.36554 -0.16165,0.36554 0.13693,0 0.32171,-0.1177 0.41062,-0.26156 z m -30.7307799,-2.2634 c -0.0862,-0.22455 -0.213426,-0.35154 -0.282778,-0.28218 -0.06935,0.0694 -0.04762,0.25308 0.0483,0.40828 0.260888,0.42214 0.413378,0.34013 0.234478,-0.1261 z m 1.87876,-0.53305 c 0.41996,-0.64093 0.41806,-0.67245 -0.0357,-0.59532 -0.60037,0.10206 -0.86764,0.4569 -0.69095,0.91735 0.18213,0.47462 0.2139,0.46054 0.72666,-0.32203 z m 1.9986799,-1.55659 c 0,-0.0642 -0.11906,-0.19026 -0.26458,-0.2802 -0.14552,-0.0899 -0.26458,-0.0374 -0.26458,0.11668 0,0.15411 0.11906,0.2802 0.26458,0.2802 0.14552,0 0.26458,-0.0525 0.26458,-0.11668 z m 5.96013,-1.68431 c -0.0815,-0.0815 -0.29496,-1.6e-4 -0.47443,0.18066 -0.25936,0.2613 -0.22897,0.2917 0.14811,0.14811 0.26094,-0.0994 0.40778,-0.2473 0.32632,-0.32877 z m 1.30066,-0.2909996 c 0.0816,-0.13195 -0.09,-0.1776 -0.38126,-0.10144 -0.6178,0.16156 -0.69589,0.3413496 -0.14827,0.3413496 0.20969,0 0.44798,-0.1079596 0.52953,-0.2399096 z m -0.50926,-3.13976 c -0.13541,-0.16011 -0.93069,0.2784 -0.93069,0.51317 0,0.13854 0.11906,0.17831 0.26458,0.0884 0.14552,-0.0899 0.27295,-0.008 0.28318,0.18282 0.0102,0.19049 0.11435,0.10822 0.23137,-0.18282 0.11703,-0.29104 0.18523,-0.56173 0.15156,-0.60154 z m -2.60204,0.15506 c -0.0845,-0.21107 -0.14715,-0.14838 -0.15985,0.15985 -0.0115,0.27891 0.051,0.43518 0.13897,0.34727 0.0879,-0.0879 0.0973,-0.31613 0.0209,-0.50712 z m 1.59969,-0.904 c -0.0879,-0.0879 -0.31613,-0.0973 -0.50712,-0.0209 -0.21107,0.0845 -0.14837,0.14716 0.15985,0.15985 0.27892,0.0115 0.43519,-0.051 0.34727,-0.13896 z m 21.10603,25.0306896 c 0.0899,-0.14552 0.21603,-0.26458 0.2802,-0.26458 0.0642,0 0.11668,0.11906 0.11668,0.26458 0,0.14552 -0.12609,0.26458 -0.2802,0.26458 -0.15411,0 -0.20662,-0.11906 -0.11668,-0.26458 z M 12.926787,7.8860124 c 0,-0.14552 0.11906,-0.26458 0.26458,-0.26458 0.14552,0 0.26458,0.11906 0.26458,0.26458 0,0.14552 -0.11906,0.26458 -0.26458,0.26458 -0.14552,0 -0.26458,-0.11906 -0.26458,-0.26458 z"
       id="path3857"
       inkscape:connector-curvature="0" />
  </g>
</svg>
